# xmcd
#
# Track frame offsets: 
#        150
#        14831
#        28942
#        43015
#        57890
#        73368
#        87473
#        103213
#        117299
#        132631
#        145974
#        161741
#        177530
#
# Disc length: 2554 seconds
#
# Revision: 0
# Processed by: cddbd v1.5.2PL0 Copyright (c) Steve Scherf et al.
# Submitted via: ExactAudioCopyFreeDBPlugin 1.0
#
DISCID=d109f80d
DTITLE=Magic System - Ya Foye
DYEAR=2017
DGENRE=Ethnic
TTITLE0=Ya foye
TTITLE1=C'est pas gâté
TTITLE2=Désolé
TTITLE3=On va t'enjailler
TTITLE4=Ma chance
TTITLE5=All around the world
TTITLE6=Zokuba
TTITLE7=Toi et le soleil
TTITLE8=Lève-toi
TTITLE9=Magic to the beat
TTITLE10=L'eau va manquer
TTITLE11=Pépito
TTITLE12=Cent pour cent
EXTD=
EXTT0=
EXTT1=
EXTT2=
EXTT3=
EXTT4=
EXTT5=
EXTT6=
EXTT7=
EXTT8=
EXTT9=
EXTT10=
EXTT11=
EXTT12=
PLAYORDER=
